<?xml version="1.0"?><svg width="640" height="480" xmlns="http://www.w3.org/2000/svg">
 <title>Men Women Holding Hands MES white</title>
 <defs>
  <filter id="svg_16_blur">
   <feGaussianBlur stdDeviation="0.7"/>
  </filter>
  <filter id="svg_18_blur">
   <feGaussianBlur id="svg_4" stdDeviation="0.7"/>
  </filter>
  <filter id="svg_19_blur">
   <feGaussianBlur id="svg_6" stdDeviation="0.7"/>
  </filter>
  <filter id="svg_20_blur">
   <feGaussianBlur id="svg_9" stdDeviation="0.7"/>
  </filter>
  <filter id="svg_22_blur">
   <feGaussianBlur id="svg_13" stdDeviation="0.7"/>
  </filter>
  <filter id="svg_23_blur">
   <feGaussianBlur id="svg_15" stdDeviation="0.7"/>
  </filter>
  <filter id="svg_26_blur">
   <feGaussianBlur id="svg_32" stdDeviation="0.7"/>
  </filter>
 </defs>
 <g>
  <title>Layer 1</title>
  <path filter="url(#svg_16_blur)" d="m399.499207,152.24437c14.250916,0 25.821533,-12.485641 25.821533,-27.834671c0,-15.444778 -11.570618,-27.930435 -25.821533,-27.930435c-14.28186,0 -25.821564,12.485657 -25.821564,27.930435c-0.003876,15.34903 11.539703,27.834671 25.821564,27.834671z" fill="#b40101" opacity="0.95" id="svg_16"/>
  <path filter="url(#svg_18_blur)" d="m418.930573,151.932556c13.411255,0 23.020081,11.623306 25.030945,17.954346l14.080078,54.322647c6.291382,27.34581 -9.562988,24.345108 -13.093384,12.438431l-14.351746,-56.691727l-8.516235,0l24.762329,92.806747l-23.623596,0l0,72.430634c0,12.35495 -17.633118,12.28299 -17.633118,0l0,-72.876129l-8.962585,0l0,72.737213c0,12.493866 -17.721893,12.493866 -17.721893,0l0,-72.288361l-23.666321,0l24.515686,-92.807327l-8.135559,0l-14.818481,52.358383c-3.487244,11.388672 -18.394135,6.777069 -14.995697,-5.50592l16.4263,-56.921234c1.764679,-6.469971 9.543274,-17.954941 23.019562,-17.954941l37.683716,0l0,-0.002762z" fill="#b40101" opacity="0.95" id="svg_18"/>
  <path filter="url(#svg_19_blur)" d="m305.911438,179.735535c9.487854,0 17.19104,-8.148895 17.19104,-18.166595c0,-10.080185 -7.703186,-18.22908 -17.19104,-18.22908c-9.50824,0 -17.190918,8.148895 -17.190918,18.22908c-0.002563,10.0177 7.682678,18.166595 17.190918,18.166595z" fill="#b40101" opacity="0.95" id="svg_19"/>
  <path filter="url(#svg_20_blur)" d="m202.762115,150.443359c14.871307,0 26.893463,-12.548218 26.893463,-28.153587c0,-15.508644 -12.022156,-28.124146 -26.893463,-28.124146c-14.779205,0 -26.8013,12.615501 -26.8013,28.124146c0.003998,15.60537 12.026093,28.153587 26.8013,28.153587z" fill="#b40101" opacity="0.95" id="svg_20"/>
  <path filter="url(#svg_22_blur)" d="m322.008179,179.270248c10.971375,0 18.832214,9.844666 20.477539,15.206665l10.314697,42.764038c6.286652,13.924469 -6.860138,17.182449 -9.948273,8.298172l-11.300201,-42.533569l-6.966858,0l20.256836,78.603943l-19.325745,0l0,61.345795c0,10.464478 -14.425049,10.403625 -14.425049,0l0,-61.723206l-7.331848,0l0,61.605896c0,10.581787 -14.49823,10.581787 -14.49823,0l0,-61.226257l-19.360718,0l20.055725,-78.603958l-6.65564,0l-12.122253,44.34549c-2.853088,9.646011 -15.048035,5.740036 -12.267944,-4.663025l13.438049,-48.210571c1.443909,-5.479874 7.807129,-15.207199 18.831848,-15.207199l30.828064,0l0,-0.002213z" fill="#b40101" opacity="0.95" id="svg_22"/>
  <path filter="url(#svg_23_blur)" d="m172.504547,340.21814c0,6.240814 5.402679,11.286255 12.181671,11.286255c6.753113,0 12.260376,-5.045441 12.260376,-11.286255l0,-94.581039l10.269745,0l0,94.581039c0,6.240814 5.506775,11.286255 12.260406,11.286255c6.778992,0 12.207031,-5.045441 12.207031,-11.286255l0.075134,-163.071945l10.19519,0l11.408142,71.464966c0.707733,8.849045 16.185791,5.028534 16.185791,-3.82048l-10.492401,-68.957184c0,-13.349396 -11.291199,-26.396103 -28.26535,-26.396103l-57.907532,-0.069183c-15.522186,0 -27.958191,11.63829 -27.958191,26.09343l-14.038452,69.394653c-2.307678,12.777679 14.27948,11.224274 14.987213,1.865021l16.253815,-69.575119l10.374329,0l0,163.071945l0.003082,0z" fill="#b40101" opacity="0.95" id="svg_23"/>
  <text filter="url(#svg_26_blur)" fill="#ffaaaa" stroke-width="0" opacity="0" x="239.649325" y="442.851297" font-size="24" font-family="Arial" text-anchor="middle" xml:space="preserve" transform="matrix(30.899899999999995,0,0,2.42476,-7056.23,-653.5249999999999) " id="svg_26"/>
 </g>
</svg>